<svg t="1607421209676" class="icon" viewBox="0 0 1024 1024" version="1.1" xmlns="http://www.w3.org/2000/svg" p-id="1158" width="200" height="200"><path d="M512 1024c282.766222 0 512-229.233778 512-512S794.766222 0 512 0 0 229.233778 0 512s229.233778 512 512 512z m0-14.222222c274.915556 0 497.777778-222.862222 497.777778-497.777778S786.915556 14.222222 512 14.222222 14.222222 237.084444 14.222222 512 237.084444 1009.777778 512 1009.777778z" fill="#3D95F2" p-id="1159"></path><path d="M512 512m-497.777778 0a497.777778 497.777778 0 1 0 995.555556 0 497.777778 497.777778 0 1 0-995.555556 0Z" fill="#FFFFFF" p-id="1160"></path><path d="M512.085333 654.819556l-126.236444 55.068444a14.222222 14.222222 0 0 1-19.825778-14.592l14.364445-134.513778-92.188445-100.408889a14.222222 14.222222 0 0 1 7.480889-23.523555l135.111111-28.245334 68.977778-117.191111a14.307556 14.307556 0 0 1 24.462222-0.056889l69.461333 117.959112 134.542223 27.505777a14.279111 14.279111 0 0 1 7.594666 23.552l-92.046222 100.408889 14.222222 134.599111a14.222222 14.222222 0 0 1-19.911111 14.506667l-126.008889-55.068444z" fill="#FF9E00" p-id="1161"></path></svg>