<svg t="1623643774841" class="icon" viewBox="0 0 1024 1024" version="1.1" xmlns="http://www.w3.org/2000/svg" p-id="14301" width="200" height="200"><path d="M923.787705 323.009967L878.988342 245.411071c19.999716-25.799633 31.999545-58.199172 31.999545-93.398672C910.987887 68.613584 844.388834 1.114544 760.99002 0.01456c-65.699066-0.899987-121.998265 39.999431-144.097951 97.798609-2.399966 6.199912-8.299882 10.299854-14.899789 10.299854h-58.999161c-5.899916 0-11.299839-3.199955-14.099799-8.399881-22.49968-42.099401-67.799036-70.099003-119.398302-67.599039-65.299072 3.299953-120.698284 60.799136-121.498273 126.198206-0.199997 18.399738 3.399952 35.999488 10.199855 51.799263 2.599963 5.999915 1.199983 12.999815-3.399952 17.59975L160.198562 362.409407c-2.899959 2.899959-6.899902 4.599935-11.099842 4.699933-1.999972 0-3.999943 0.099999-5.099927 0.099999C63.799933 371.409279 0.00084 437.708336 0.00084 519.00718c0 60.49914 35.399497 112.798396 86.598769 137.298048 5.499922 2.599963 8.999872 8.299882 8.999872 14.399795v89.698725c0 6.799903-4.299939 12.799818-10.699848 15.099785C35.300338 793.203282-0.199157 840.702606 0.00084 896.401814c0.199997 68.999019 55.799207 125.798211 124.798226 127.498187 60.999133 1.499979 112.698398-39.799434 127.198191-95.998635 0.69999-2.599963 1.599977-6.29991 2.299967-9.499865 0.999986-4.299939 3.699947-7.999886 7.599892-10.299853L383.395389 838.002645c7.399895-4.299939 16.699763-1.999972 21.399695 5.099927 40.199428 60.999133 109.298446 101.098563 187.79733 100.898565 123.79824-0.299996 224.296811-101.99855 223.396824-225.796789-0.299996-38.199457-10.199855-74.198945-27.399611-105.598498-3.399952-6.199912-2.299967-13.899802 2.79996-18.899732l33.699521-33.699521c1.899973-1.899973 4.89993-2.299967 7.199898-0.899987 19.299726 11.099842 41.699407 17.299754 65.599067 16.89976 68.999019-0.999986 125.19822-57.399184 126.098207-126.398203 0.69999-61.89912-42.399397-113.798382-100.198575-126.5982z m-5.199926 134.398089c4.799932 4.799932 7.999886 10.999844 8.999872 17.999744 0.399994 2.399966-1.499979 4.599935-3.999943 4.599935h-55.399213c-2.499964 0-4.299939-2.199969-3.999943-4.599935 0.999986-6.9999 4.299939-13.199812 8.999872-17.999744 0.499993-0.499993 0.999986-0.899987 1.499979-1.39998-7.299896-6.399909-11.599835-16.099771-10.699848-26.69962 1.299982-15.599778 13.999801-28.199599 29.699578-29.299584 18.699734-1.299982 34.199514 13.499808 34.199514 31.899547 0 9.499865-4.19994 18.099743-10.799847 23.999659 0.599991 0.499993 1.099984 0.999986 1.499979 1.499978zM720.090601 133.712659c1.099984-19.899717 17.199755-36.199485 37.099473-37.599466C780.589741 94.513216 799.989465 113.012953 799.989465 136.012626c0 10.899845-4.399937 20.799704-11.399838 27.999602 6.099913 6.199912 10.199855 14.499794 11.199841 23.599664 0.299996 2.399966-1.599977 4.399937-3.999943 4.399938h-71.498983c-2.399966 0-4.299939-1.999972-3.999944-4.399938 0.999986-9.099871 5.099927-17.399753 11.199841-23.599664-7.599892-7.699891-12.099828-18.499737-11.399838-30.299569z m-335.995222 7.599892c1.299982-15.599778 13.999801-28.199599 29.699577-29.299584 18.699734-1.299982 34.199514 13.499808 34.199514 31.899547 0 9.499865-4.19994 18.099743-10.799846 23.999658 0.499993 0.399994 0.999986 0.899987 1.499978 1.399981 4.799932 4.799932 7.999886 10.999844 8.999872 17.999744 0.399994 2.399966-1.499979 4.599935-3.999943 4.599934h-55.399212c-2.499964 0-4.299939-2.199969-3.999943-4.599934 0.999986-6.9999 4.299939-13.199812 8.999872-17.999744 0.499993-0.499993 0.999986-0.899987 1.499979-1.399981-7.199898-6.29991-11.499836-15.999773-10.699848-26.599621z m-271.996133 356.194935c1.199983-19.799718 17.199755-35.999488 36.999474-37.399468C172.498387 458.508041 191.99811 477.007778 191.99811 500.007451c0 11.999829-5.199926 22.699677-13.599807 29.999573 0.599991 0.499993 1.299982 1.099984 1.799975 1.699976 6.29991 6.29991 10.499851 14.599792 11.499836 23.89966 0.299996 2.399966-1.599977 4.399937-3.999943 4.399937h-71.498983c-2.399966 0-4.299939-1.999972-3.999943-4.399937 0.999986-9.299868 5.199926-17.59975 11.499836-23.89966 0.599991-0.599991 1.199983-1.199983 1.799975-1.699976-8.799875-7.799889-14.199798-19.599721-13.39981-32.499538z m38.499453 407.8942c4.799932 4.799932 7.999886 10.999844 8.999872 17.999744 0.399994 2.399966-1.499979 4.599935-3.999943 4.599935h-55.399213c-2.499964 0-4.299939-2.199969-3.999943-4.599935 0.999986-6.9999 4.299939-13.199812 8.999872-17.999744 0.499993-0.499993 0.999986-0.899987 1.499979-1.39998-7.299896-6.399909-11.599835-15.999773-10.699848-26.599622 1.199983-15.599778 13.999801-28.199599 29.599579-29.299583 18.699734-1.299982 34.299512 13.499808 34.299512 31.899546 0 9.599864-4.19994 18.099743-10.799846 23.999659 0.599991 0.399994 1.099984 0.899987 1.499979 1.39998z m221.096856-226.096785c-2.399966 13.199812-3.699947 26.799619-3.699947 40.699421 0 13.299811 1.199983 26.399625 3.399951 38.999446 1.199983 6.599906-1.999972 13.199812-7.799889 16.499765l-104.198518 60.099146c-7.499893 4.399937-17.199755 1.899973-21.699692-5.599921-15.299782-25.399639-38.999445-44.99936-67.399041-54.899219-6.499908-2.299967-10.799846-8.299882-10.799847-15.099785v-74.698938c0-7.999886 5.899916-14.699791 13.899803-15.799776 36.299484-5.099927 68.399027-22.999673 91.698696-48.999303 5.099927-5.699919 13.399809-7.099899 19.999715-3.299953l78.79888 45.499353c5.899916 3.299953 8.999872 9.999858 7.799889 16.599764z m33.999517-83.798808c-4.699933 6.9999-13.999801 9.299868-21.299698 4.999929l-74.198945-42.799392c-5.699919-3.299953-8.799875-9.699862-7.799889-16.099771 1.099984-7.399895 1.699976-14.899788 1.699976-22.599679 0-50.099288-24.199656-94.498656-61.599124-122.198262-7.899888-5.799918-8.799875-17.299754-1.799974-24.199656l96.698625-96.698625c4.999929-4.999929 12.699819-6.099913 18.899731-2.699962C373.995522 282.610542 394.395232 288.010465 415.994925 288.010465c62.199116 0 113.998379-44.29937 125.598214-102.998536 1.499979-7.499893 8.099885-12.799818 15.699777-12.799818H594.99238c7.499893 0 13.999801 5.199926 15.599778 12.499823 9.099871 41.599409 35.299498 76.898907 70.798993 97.998606 7.499893 4.499936 10.199855 14.0998 5.799918 21.699692L580.592585 489.307603c-2.599963 4.499936-7.199898 7.399895-12.299825 7.899887-67.799036 7.199898-126.498201 44.499367-162.597688 98.298603z m231.596707 159.197736c9.499865 9.499865 16.099771 22.099686 18.099742 35.999488 0.69999 4.89993-2.999957 9.199869-7.899888 9.199869H536.59321c-4.89993 0-8.599878-4.399937-7.899887-9.199869 1.999972-13.999801 8.599878-26.499623 18.099742-35.999488 4.19994-4.19994 8.999872-7.799889 14.299797-10.699848-20.499709-11.399838-34.099515-33.699521-32.899532-59.099159 1.499979-32.799534 28.0996-59.399155 60.899134-60.899135 36.699478-1.699976 67.099046 27.599608 67.099046 63.899092 0 24.099657-13.299811 45.099359-32.999531 55.999204 5.099927 2.999957 9.899859 6.599906 14.0998 10.799846zM767.98992 448.00819c0 21.0997 5.099927 40.999417 14.0998 58.499168 1.199983 2.299967 0.799989 5.199926-1.099985 6.999901l-29.299583 29.299583c-5.799918 5.799918-14.899788 6.199912-21.299697 1.199983-19.399724-15.299782-41.399411-27.39961-65.099075-35.699492-9.499865-3.299953-13.799804-14.399795-8.699876-23.099672L761.290015 304.010237c24.399653-0.399994 47.399326-6.499908 67.799036-16.999758l23.499666 40.599423c-49.399298 17.799747-84.598797 64.999076-84.598797 120.398288z" p-id="14302"></path></svg>