<svg t="1608993437915" class="icon" viewBox="0 0 1024 1024" version="1.1" xmlns="http://www.w3.org/2000/svg" p-id="2817" width="200" height="200"><path d="M511.999699 0.000698a442.181517 442.181517 0 0 0-116.363558 869.003044A289.745257 289.745257 0 0 1 511.999699 1024a289.745257 289.745257 0 0 1 116.363557-154.996258A442.181517 442.181517 0 0 0 511.999699 0.000698z m353.97794 628.363208H151.738126a16.058171 16.058171 0 0 1-9.309085-29.323616 630.923206 630.923206 0 0 0 110.54538-93.090846c30.952706-37.003611 72.145405-82.850853 93.090845-106.589018a16.058171 16.058171 0 0 1 25.367256 2.094544c3.25818 5.585451 7.679995 12.10181 12.334537 19.31635 48.872694-57.949051 109.847198-125.905369 142.428993-162.908979a25.83271 25.83271 0 0 1 40.959973 3.490906c12.567264 19.549078 31.185433 47.941785 54.225417 80.756309l36.538157-53.061782a16.058171 16.058171 0 0 1 28.858162 3.258179c16.058171 32.581796 46.545423 91.461756 83.316307 154.298077a865.744864 865.744864 0 0 0 107.054472 139.636268c13.7309 14.196354 7.214541 42.123608-11.170901 42.123608z" p-id="2818"></path></svg>