<svg t="1607423757242" class="icon" viewBox="0 0 1024 1024" version="1.1" xmlns="http://www.w3.org/2000/svg" p-id="4051" width="200" height="200"><path d="M854.97173333 399.86353493c-40.73171627 0-75.677696 24.77370027-90.59259733 60.07466667H261.76279893c-14.91490133-35.3009664-49.86088107-60.07466667-90.59259733-60.07466667-54.29220693 0-98.304 44.01179307-98.304 98.304s44.01179307 98.304 98.304 98.304c40.73171627 0 75.677696-24.77370027 90.59259733-60.07466666H764.379136c14.91490133 35.3009664 49.86088107 60.07466667 90.59259733 60.07466666 54.29220693 0 98.304-44.01179307 98.304-98.304s-44.01179307-98.304-98.304-98.304z m-683.802624 136.53333334c-21.11351467 0-38.22933333-17.11581867-38.22933333-38.22933334s17.11581867-38.22933333 38.22933333-38.22933333 38.22933333 17.11581867 38.22933334 38.22933333-17.11581867 38.22933333-38.22933334 38.22933334z m683.802624 0c-21.11351467 0-38.22933333-17.11581867-38.22933333-38.22933334s17.11581867-38.22933333 38.22933333-38.22933333 38.22933333 17.11581867 38.22933334 38.22933333-17.11581867 38.22933333-38.22933334 38.22933334z" fill="#006569" p-id="4052"></path></svg>