<svg t="1607423369022" class="icon" viewBox="0 0 1024 1024" version="1.1" xmlns="http://www.w3.org/2000/svg" p-id="3845" width="200" height="200"><path d="M797.776435 485.703927c-13.92145-142.308157-107.504532-124.519637-105.957704-126.066465 25.522659-27.069486 49.498489-98.996979 31.70997-144.628399-28.616314-76.567976-107.504532-38.670695-133.02719-29.389728-37.897281 13.148036-51.818731 38.670695-54.138973 32.483384-7.734139-21.655589-14.694864-36.350453-31.70997-69.607251C456.700906 56.459215 390.187311 34.803625 353.063444 70.380665c-89.716012 85.848943-2.320242 249.039275-7.734139 246.719033-54.138973-29.389728-106.731118 23.202417-118.332326 93.583081-8.507553 53.365559 0 142.308157 58.779456 158.549849 38.670695 10.827795 58.779456-3.093656 58.779456-3.093655s-6.187311 61.873112 29.389728 93.583081c34.803625 30.936556 91.26284-47.951662 91.26284-47.951661 93.583082 144.628399 220.422961 117.558912 262.187311 91.26284 66.513595-40.217523 77.34139-147.722054 70.380665-217.329306z" fill="#148d13" p-id="3846"></path><path d="M421.897281 991.516616c12.374622-28.616314 31.70997-436.205438 22.429003-439.299093-9.280967-3.093656-71.154079 4.640483-141.534743-68.060423-0.773414-0.773414 71.154079 44.084592 118.332326 44.084592 8.507553 0-68.060423-83.528701-48.725075-262.960725 0-0.773414 13.92145 109.824773 34.803625 182.52568 20.108761 68.833837 47.951662 100.543807 51.818731 97.450151 51.818731-45.63142 78.888218-137.667674 78.888218-188.712991 0-1.546828 18.561934 36.350453 4.640483 89.716012-17.015106 62.646526-75.794562 100.543807-65.740181 105.18429 72.700906 31.70997 139.214502 40.217523 159.323263 20.108761 1.546828-1.546828-18.561934 25.522659-80.435046 18.561934-39.444109-4.640483-78.888218-25.522659-77.34139-23.975831 8.507553 8.507553 13.92145 267.601208 118.332327 428.471299l-174.791541-3.093656z" fill="#824522" p-id="3847"></path></svg>