<svg t="1607424141554" class="icon" viewBox="0 0 1024 1024" version="1.1" xmlns="http://www.w3.org/2000/svg" p-id="9588" width="200" height="200"><path d="M0 0h1024v1024H0z" fill="#000000" opacity=".01" p-id="9589"></path><path d="M491.792 29.584a96.032 96.032 0 0 1 88.704 59.2h227.84a96.016 96.016 0 1 1 120.272 129.536v170.576a96.032 96.032 0 0 1-36.8 184.688 95.68 95.68 0 0 1-66.96-27.2H558.736a96.448 96.448 0 0 1-14.128 11.392v239.632a96 96 0 1 1-141.488 116.992H193.712a96 96 0 1 1-106.72-143.12V571.328a96 96 0 1 1 114.528-114.528H398.08a96.128 96.128 0 0 1 72.944-72.96V219.328a96 96 0 0 1 20.8-189.744z m-93.728 468.8H201.536a96.128 96.128 0 0 1-72.928 72.944V769.44a96.032 96.032 0 0 1 78.992 103.36l188.32-0.016a96 96 0 0 1 107.088-90.56V572.96a96.032 96.032 0 0 1-104.96-74.56z m401.968-368L587.68 130.4a96.048 96.048 0 0 1-75.088 88.928V383.84a96.032 96.032 0 0 1 71.296 120.96h215.824a96 96 0 0 1 87.28-123.104v-158.112A96 96 0 0 1 800 128l0.032 2.384z" fill="#A8ADBB" p-id="9590"></path></svg>