<svg t="1611749657997" class="icon" viewBox="0 0 1024 1024" version="1.1" xmlns="http://www.w3.org/2000/svg" p-id="3349" width="200" height="200"><path d="M645.44 512l200.14-200.14c24.56-24.56 24.56-64.38 0-88.96l-44.48-44.48c-24.56-24.56-64.38-24.56-88.96 0L512 378.56 311.86 178.42c-24.56-24.56-64.38-24.56-88.96 0L178.42 222.9c-24.56 24.56-24.56 64.38 0 88.96L378.56 512 178.42 712.14c-24.56 24.56-24.56 64.38 0 88.96l44.48 44.48c24.56 24.56 64.4 24.56 88.96 0L512 645.44l200.14 200.14c24.56 24.56 64.4 24.56 88.96 0l44.48-44.48c24.56-24.56 24.56-64.38 0-88.96L645.44 512z" fill="" p-id="3350"></path></svg>