<svg t="1611749749399" class="icon" viewBox="0 0 1024 1024" version="1.1" xmlns="http://www.w3.org/2000/svg" p-id="5599" width="200" height="200"><path d="M240.127 371.598c51.966-41.338 99.015-65.319 140.602-72.899 38.143-6.952 72.197-0.257 104.75 20.577 9.383 6.005 40.3 26.062 43.778 28.302 17.17 11.06 30.2 19.203 42.84 26.66 33.134 19.55 61.123 32.738 89.31 40.887 80.705 23.332 155.875 1.53 235.411-71.506 20.34-18.677 21.688-50.307 3.01-70.646-18.677-20.34-50.307-21.688-70.646-3.01-29.728 27.298-55.728 43.195-79.263 50.02-19.845 5.756-38.963 5.371-60.739-0.924-18.83-5.444-39.748-15.3-66.268-30.947-11.304-6.67-23.337-14.19-39.502-24.602-3.237-2.085-34.328-22.255-44.025-28.46-53.86-34.472-113.585-46.213-176.587-34.73-59.557 10.855-121.017 42.18-184.925 93.02-21.61 17.19-25.193 48.645-8.002 70.256 17.19 21.61 48.646 25.193 70.256 8.002zM240.127 635.598c51.966-41.338 99.015-65.319 140.602-72.899 38.143-6.952 72.197-0.257 104.75 20.577 9.383 6.005 40.3 26.062 43.778 28.302 17.17 11.06 30.2 19.203 42.84 26.66 33.134 19.55 61.123 32.738 89.31 40.887 80.705 23.332 155.875 1.53 235.411-71.506 20.34-18.677 21.688-50.307 3.01-70.646-18.677-20.34-50.307-21.688-70.646-3.01-29.728 27.298-55.728 43.195-79.263 50.02-19.845 5.756-38.963 5.371-60.739-0.924-18.83-5.444-39.748-15.3-66.268-30.947-11.304-6.67-23.337-14.19-39.502-24.602-3.237-2.085-34.328-22.255-44.025-28.46-53.86-34.472-113.585-46.213-176.587-34.73-59.557 10.855-121.017 42.18-184.925 93.02-21.61 17.19-25.193 48.645-8.002 70.256 17.19 21.61 48.646 25.193 70.256 8.002z" fill="#979797" p-id="5600"></path></svg>