<svg t="1607423927736" class="icon" viewBox="0 0 1024 1024" version="1.1" xmlns="http://www.w3.org/2000/svg" p-id="5806" width="200" height="200"><path d="M950.044444 671.288889V349.866667c34.133333-11.377778 56.888889-42.666667 56.888889-79.644445 0-48.355556-36.977778-85.333333-85.333333-85.333333-31.288889 0-59.733333 17.066667-73.955556 42.666667l-238.933333-128c0-45.511111-39.822222-85.333333-85.333333-85.333334s-85.333333 36.977778-85.333334 85.333334L199.111111 224.711111C182.044444 199.111111 156.444444 182.044444 125.155556 182.044444c-48.355556 0-85.333333 36.977778-85.333334 85.333334 0 36.977778 22.755556 68.266667 56.888889 79.644444v324.266667c-34.133333 11.377778-56.888889 42.666667-56.888889 79.644444 0 48.355556 36.977778 85.333333 85.333334 85.333334 31.288889 0 59.733333-17.066667 73.955555-42.666667l238.933333 128c0 45.511111 39.822222 85.333333 85.333334 85.333333s85.333333-36.977778 85.333333-85.333333l238.933333-128c14.222222 25.6 42.666667 42.666667 73.955556 42.666667 48.355556 0 85.333333-36.977778 85.333333-85.333334 0-36.977778-25.6-68.266667-56.888889-79.644444z m-59.733333 2.844444l-256-147.911111c2.844444-8.533333 5.688889-19.911111 5.688889-28.444444s-2.844444-19.911111-5.688889-28.444445l233.244445-133.688889 25.6 17.066667v324.266667c-2.844444-5.688889-2.844444-5.688889-2.844445-2.844445z m-287.288889-256c-14.222222-14.222222-31.288889-25.6-54.044444-31.288889V179.2c14.222222-5.688889 28.444444-14.222222 36.977778-25.6l247.466666 133.688889-230.4 130.844444z m-108.088889-238.933333v207.644444c-19.911111 5.688889-39.822222 17.066667-54.044444 31.288889L207.644444 284.444444 455.111111 150.755556c11.377778 11.377778 22.755556 22.755556 39.822222 28.444444zM179.2 332.8l233.244444 133.688889c-2.844444 8.533333-5.688889 19.911111-5.688888 28.444444s2.844444 19.911111 5.688888 28.444445l-256 147.911111h-2.844444V349.866667l25.6-17.066667zM199.111111 713.955556l241.777778-136.533334c14.222222 14.222222 31.288889 25.6 54.044444 31.288889v236.088889c-14.222222 5.688889-28.444444 14.222222-36.977777 25.6l-247.466667-133.688889c-2.844444-8.533333-5.688889-17.066667-11.377778-22.755555z m352.711111 128v-236.088889c19.911111-5.688889 39.822222-17.066667 54.044445-31.288889l241.777777 136.533333c-2.844444 8.533333-5.688889 14.222222-8.533333 22.755556l-247.466667 133.688889c-11.377778-11.377778-25.6-19.911111-39.822222-25.6z" p-id="5807"></path></svg>