<svg t="1615947374752" class="icon" viewBox="0 0 1024 1024" version="1.1" xmlns="http://www.w3.org/2000/svg" p-id="3971" width="200" height="200"><path d="M243.2 678.4c-85.333333 0-157.866667-72.533333-157.866667-157.866667s72.533333-157.866667 157.866667-157.866666 157.866667 72.533333 157.866667 157.866666c0 89.6-68.266667 157.866667-157.866667 157.866667z m0-256c-55.466667 0-98.133333 46.933333-98.133333 98.133333 0 55.466667 46.933333 98.133333 98.133333 98.133334s98.133333-42.666667 98.133333-98.133334c0-55.466667-42.666667-98.133333-98.133333-98.133333z" fill="#6A3906" p-id="3972"></path><path d="M243.2 520.533333m-72.533333 0a72.533333 72.533333 0 1 0 145.066666 0 72.533333 72.533333 0 1 0-145.066666 0Z" fill="#F5CB2B" p-id="3973"></path><path d="M780.8 413.866667c-85.333333 0-157.866667-72.533333-157.866667-157.866667s72.533333-157.866667 157.866667-157.866667S938.666667 166.4 938.666667 256c0 85.333333-72.533333 157.866667-157.866667 157.866667z m0-260.266667C725.333333 153.6 682.666667 200.533333 682.666667 256c0 55.466667 46.933333 98.133333 98.133333 98.133333s98.133333-46.933333 98.133333-98.133333c0-55.466667-42.666667-102.4-98.133333-102.4z" fill="#6A3906" p-id="3974"></path><path d="M780.8 256m-72.533333 0a72.533333 72.533333 0 1 0 145.066666 0 72.533333 72.533333 0 1 0-145.066666 0Z" fill="#F5CB2B" p-id="3975"></path><path d="M780.8 930.133333c-85.333333 0-157.866667-72.533333-157.866667-157.866666s72.533333-157.866667 157.866667-157.866667S938.666667 682.666667 938.666667 768s-72.533333 162.133333-157.866667 162.133333z m0-260.266666C725.333333 669.866667 682.666667 716.8 682.666667 768s46.933333 98.133333 98.133333 98.133333 98.133333-46.933333 98.133333-98.133333-42.666667-98.133333-98.133333-98.133333z" fill="#6A3906" p-id="3976"></path><path d="M780.8 768m-72.533333 0a72.533333 72.533333 0 1 0 145.066666 0 72.533333 72.533333 0 1 0-145.066666 0Z" fill="#F5CB2B" p-id="3977"></path><path d="M353.450667 424.874667l279.808-136.874667 26.24 53.674667-279.808 136.874666zM343.978667 628.565333l29.397333-52.010666 286.037333 161.664-29.44 52.010666z" fill="#6A3906" p-id="3978"></path></svg>