<svg t="1611749704604" class="icon" viewBox="0 0 1024 1024" version="1.1" xmlns="http://www.w3.org/2000/svg" p-id="5434" width="200" height="200"><path d="M398.44977778 428.94222222h-31.51644445l-2.50311111-69.40444444h-1.82044444c-14.79111111 27.42044445-32.31288889 46.99022222-52.45155556 58.82311111-20.13866667 11.83288889-43.12177778 17.74933333-68.83555555 17.74933333-36.75022222 0-65.42222222-9.10222222-86.24355556-27.19288889-20.70755555-18.09066667-31.17511111-43.23555555-31.17511111-75.43466666 0-37.43288889 13.99466667-65.42222222 41.87022222-84.08177778 27.87555555-18.65955555 71.90755555-28.78577778 131.98222223-30.37866667l66.21866666-2.16177777v-22.86933334c0-36.75022222-7.96444445-63.60177778-24.00711111-80.66844444-15.92888889-17.06666667-38.00177778-25.6-66.21866667-25.6-30.03733333 0-52.56533333 4.77866667-67.47022222 14.44977778-14.90488889 9.67111111-25.25866667 25.94133333-30.94755556 48.81066666l-31.85777777-6.82666666c8.87466667-30.94755555 23.66577778-53.02044445 44.48711111-65.99111112 20.82133333-12.97066667 49.60711111-19.456 86.016-19.456 41.75644445 0 72.81777778 10.92266667 93.41155556 32.768 20.48 21.84533333 30.72 55.86488889 30.72 102.17244445V428.94222222z m-149.16266667-21.73155555c19.56977778 0 37.888-5.34755555 55.06844444-15.92888889s31.40266667-25.6 42.78044445-45.056 16.95288889-38.79822222 16.95288889-58.14044445v-44.71466666l-62.91911111 2.16177778c-51.31377778 1.70666667-87.72266667 9.44355555-109.34044445 23.43822222s-32.42666667 35.49866667-32.42666666 64.62577778c0 22.64177778 7.168 40.61866667 21.61777778 53.81688888 14.56355555 13.08444445 37.31911111 19.79733333 68.26666666 19.79733334zM947.08622222 803.49866667c0 58.48177778-13.19822222 103.53777778-39.70844444 135.28177778S843.88977778 986.45333333 796.21688889 986.45333333c-27.98933333 0-51.76888889-5.80266667-71.33866667-17.52177778-19.56977778-11.71911111-35.84-30.15111111-48.69688889-55.296h-1.36533333c0 6.144-0.45511111 17.408-1.36533333 33.56444445-0.91022222 16.15644445-1.59288889 26.96533333-2.048 32.54044445h-30.60622222c1.59288889-29.80977778 2.38933333-53.93066667 2.38933333-72.47644445V480.02844445h32.99555555v171.57688888c0 8.07822222-0.11377778 15.81511111-0.34133333 23.552-0.22755555 7.73688889-0.56888889 15.47377778-1.024 23.552h1.36533333c14.90488889-27.30666667 32.08533333-46.64888889 51.54133334-58.14044444 19.456-11.49155555 44.60088889-17.18044445 75.32088888-17.18044444 45.85244445 0 81.35111111 15.81511111 106.38222223 47.44533333 25.14488889 31.63022222 37.66044445 75.88977778 37.66044444 132.66488889z m-33.33688889 0c0-49.94844445-9.78488889-87.83644445-29.35466666-113.664-19.56977778-25.82755555-48.128-38.68444445-85.44711112-38.68444445-39.13955555 0-69.40444445 12.62933333-90.79466666 37.77422223-21.27644445 25.25866667-31.97155555 64.28444445-31.97155556 117.1911111 0 49.94844445 9.89866667 87.83644445 29.58222222 113.77777778 19.68355555 25.94133333 49.03822222 38.79822222 87.95022223 38.79822222 39.59466667 0 69.51822222-13.42577778 89.77066667-40.16355555 20.25244445-26.624 30.26488889-64.96711111 30.26488888-115.02933333zM204.00355555 781.76711111l673.67822223-713.27288889 32.19911111 30.37866667-673.67822222 713.38666666-32.19911112-30.49244444z" p-id="5435"></path></svg>