<svg t="1615880621477" class="icon" viewBox="0 0 1024 1024" version="1.1" xmlns="http://www.w3.org/2000/svg" p-id="1361" width="200" height="200"><path d="M425.388665 865.622547h351.949455c38.874556 0 70.389096 31.51454 70.389096 70.389096v87.988357H354.997582v-87.988357c0-38.874556 31.51454-70.389096 70.391083-70.389096z" fill="#FEC33C" p-id="1362"></path><path d="M374.355378 798.927368a36.251656 36.251656 0 0 1 15.838739 31.498644v35.194548h422.340538V832.889948c0-16.289798 1.472401-32.545817 4.399318-48.569351l23.053701-125.646841c3.16735-17.597274 5.631287-35.194548 7.214962-52.791822l42.761217-291.414117a61.063892 61.063892 0 0 0-29.914969-59.12851 50.50672 50.50672 0 0 0-46.457121-1.231968 58.075376 58.075376 0 0 0-30.620369 38.010192l-22.17344 66.343471 7.743516-162.776771c2.299012-31.389356-18.123841-59.951147-48.569351-67.927147a56.138007 56.138007 0 0 0-45.753707 10.030605 65.814918 65.814918 0 0 0-25.51565 42.40951l-25.34079 111.216918-6.511548-211.169276C615.266749 41.177542 589.397405 9.855745 553.322596 9.855745c-37.563106 1.786354-67.088614 32.784262-67.046886 70.389096l-14.429923 276.809333-51.913548-196.387644a66.876 66.876 0 0 0-32.027198-43.818326 57.723669 57.723669 0 0 0-51.384994-2.463936 68.628574 68.628574 0 0 0-38.713605 70.389096l52.791822 369.548716c-14.606771-7.566669-44.344892-16.717013-56.312867-29.740109 0 0-49.801319-51.913548-71.446204-51.913548a77.437146 77.437146 0 0 0-57.367988 25.867357l-8.975484 9.853759a37.833344 37.833344 0 0 0-3.16735 45.928567l30.795229 44.873446c5.458414 7.570643 124.768567 157.678013 190.231778 199.735816z" fill="#F5E6C6" p-id="1363"></path><path d="M865.326477 238.799142c-29.219503-14.580939-64.726017-2.714304-79.306956 26.505198a59.142419 59.142419 0 0 0-3.928389 10.098165l-13.901369 48.921057 7.214962-137.964535c1.504193-32.470309-20.921601-61.177154-52.791822-67.57544-35.474721-6.970555-69.886374 16.136796-76.856929 51.611517-0.077495 0.393435-0.151015 0.78687-0.220562 1.180305l-15.838739 84.821007-8.44693-183.718244C621.249743 32.539855 588.709887 0 548.571571 0s-72.678172 32.539855-72.678173 72.678172l-10.207452 247.420932-44.698586-177.91011c-8.39328-36.164226-44.515778-58.677451-80.680004-50.28417-33.622795 7.803127-55.871742 39.804493-51.476398 74.039298l41.177541 367.084779a157.161381 157.161381 0 0 1-43.466618-30.620369l-15.838739-15.838739c-34.338131-34.230831-89.899895-34.230831-124.238026 0l-10.030605 9.502051c-12.266031 12.329617-13.686769 31.770869-3.344197 45.753707l33.259165 44.52174a276.600693 276.600693 0 0 1 16.717013 25.692496l3.519058 6.159841a470.909888 470.909888 0 0 0 168.408058 169.28832c10.879074 6.28105 17.585352 17.883409 17.597274 30.443522v47.68909c-0.037754 0.643803-0.037754 1.29158 0 1.935382-23.405408 17.597274-35.194548 45.753707-35.194548 86.050988v52.791822a17.597274 17.597274 0 0 0 35.194548 0v-52.791822c0-50.68158 19.709503-70.389096 70.389096-70.389096h316.754907c52.791822 0 70.389096 17.597274 70.389096 70.389096H530.972309a17.597274 17.597274 0 0 0 0 35.194548h299.157633v17.597274a17.597274 17.597274 0 0 0 35.194548 0v-52.791822c0-41.177542-11.965987-70.389096-35.194548-86.579542V821.450528a247.923654 247.923654 0 0 1 4.751025-48.392504l24.989083-124.94144a545.906943 545.906943 0 0 0 7.918376-52.791822l29.740109-297.750805a59.476243 59.476243 0 0 0-32.202058-58.774815zM832.770725 591.803717a461.709868 461.709868 0 0 1-7.391809 49.272765l-24.989083 125.118287a281.466967 281.466967 0 0 0-5.454439 55.255759v30.620369a159.432574 159.432574 0 0 0-35.194548-4.047611h-316.754907a153.399905 153.399905 0 0 0-35.194548 4.047611v-33.96258a70.395057 70.395057 0 0 0-35.194548-61.415599 434.656245 434.656245 0 0 1-155.56181-155.033256l-2.815643-6.3347a307.787371 307.787371 0 0 0-19.357796-28.859848l-33.436013-45.225153 9.853758-9.853758c20.611622-20.58579 54.001933-20.58579 74.613555 0l15.838738 15.838739a189.170696 189.170696 0 0 0 72.853033 45.402l4.751025 42.761217a17.599261 17.599261 0 0 0 17.597274 15.661892h1.935383a17.599261 17.599261 0 0 0 15.492993-19.477019l-0.005962-0.057625-50.504732-449.793556c-2.664628-17.485999 9.351036-33.8215 26.839022-36.486128 16.788547-2.557327 32.653117 8.433021 36.160252 25.046707l73.733293 297.222251v0.880261c0.409331 1.166396 0.939872 2.287089 1.583676 3.344197a20.764624 20.764624 0 0 0 6.863254 7.038115l2.815644 1.055121a17.62708 17.62708 0 0 0 3.695904 0.880261h7.918376a17.690665 17.690665 0 0 0 3.344197-1.583675l2.463937-1.583675a15.139299 15.139299 0 0 0 5.279579-8.270083 17.738354 17.738354 0 0 0 0-3.344198v-1.055121l15.485045-369.548715c0.001987-20.701039 16.784572-37.481637 37.485611-37.479651 20.699052 0.001987 37.477663 16.780598 37.479651 37.479651l16.365306 332.768505v1.406828c0.202679 1.327346 0.55836 2.624887 1.055121 3.870765 0.29607 0.78687 0.649764 1.551882 1.055121 2.287089a17.555546 17.555546 0 0 0 2.638796 3.519057l1.583675 1.583675c0.985575 0.755077 2.046657 1.404841 3.167351 1.935383l3.519057 1.406828h2.815643l1.760523 1.583675h1.406828a16.571959 16.571959 0 0 0 3.870764-0.880261l2.463936-1.055121a17.660859 17.660859 0 0 0 3.167351-2.28709l1.935382-2.112229c0.683544-0.935898 1.273696-1.939356 1.760522-2.99249 0.512658-1.013393 0.923976-2.074475 1.231968-3.167351v-1.406828l43.818325-234.046129c3.111713-16.343448 18.831229-27.111247 35.194548-24.108821a30.441535 30.441535 0 0 1 24.283682 31.146936l-13.549662 292.822932v0.880261c0.147041 2.302986 0.681557 4.564243 1.583675 6.686408a20.903718 20.903718 0 0 0 3.870764 5.454439l2.638797 1.935383 3.16735 1.583675h10.030605a17.635028 17.635028 0 0 0 3.870765-1.231968l2.112229-1.406828a13.555624 13.555624 0 0 0 4.576165-4.751026 17.555546 17.555546 0 0 0 1.760523-3.344197v-1.231969l57.544834-197.267905c3.674047-12.69722 16.943536-20.011534 29.640756-16.339475a23.931975 23.931975 0 0 1 17.168073 25.312972L832.770725 591.803717z" fill="#C89406" p-id="1364"></path><path d="M460.583213 953.608917h-35.194548a17.597274 17.597274 0 0 0 0 35.194548h35.194548a17.597274 17.597274 0 0 0 0-35.194548z" fill="#C89406" p-id="1365"></path></svg>