<svg t="1608993688937" class="icon" viewBox="0 0 1024 1024" version="1.1" xmlns="http://www.w3.org/2000/svg" p-id="5168" width="200" height="200"><path d="M771.56352 266.57792l0-70.53312L313.088 196.0448l269.78304 290.16064c16.896 18.18624 16.66048 46.44864-0.54272 64.33792L315.5968 827.9552l455.95648 0 0-42.58816c0-25.81504 21.00224-46.81728 46.81728-46.81728 25.81504 0 46.82752 21.00224 46.82752 46.81728l0 89.40544c0 25.81504-21.00224 46.82752-46.82752 46.82752L205.6192 921.6c-18.7904 0-35.70688-11.17184-43.07968-28.47744-7.3728-17.3056-3.70688-37.24288 9.3184-50.80064L484.1472 517.55008 171.32544 181.10464c-12.67712-13.64992-16.06656-33.49504-8.63232-50.5856C170.1376 113.43872 186.99264 102.4 205.6192 102.4l612.7616 0c25.81504 0 46.82752 21.00224 46.82752 46.82752l0 117.3504c0 25.81504-21.00224 46.82752-46.82752 46.82752C792.56576 313.40544 771.56352 292.4032 771.56352 266.57792z" p-id="5169"></path></svg>