<svg t="1611750466132" class="icon" viewBox="0 0 1024 1024" version="1.1" xmlns="http://www.w3.org/2000/svg" p-id="5765" width="200" height="200"><path d="M64 512c0 247.424 200.576 448 448 448 247.36 0 448-200.576 448-448 0-247.392-200.64-448-448-448C264.576 64 64 264.608 64 512z" fill="#1EA6E2" p-id="5766"></path><path d="M654.816 546.24l126.784-174.752H709.76l-90.912 129.76-90.816-129.76h-71.968l126.816 174.752-126.816 174.72h71.904l90.88-129.856 90.912 129.856h71.84l-126.784-174.72z" fill="#FFFFFF" p-id="5767"></path><path d="M424 252.992h-60l-8 55.008-48 311.008-72-132.992-28.992-52-50.016 34.016-54.016 36.992 28.512 51.968 57.632-33.216 116.672 201.344 29.344 50.656 9.952-61.184 71.04-406.592h418.784V252.992H424z" fill="#FFFFFF" p-id="5768"></path></svg>