<svg t="1607421660708" class="icon" viewBox="0 0 1024 1024" version="1.1" xmlns="http://www.w3.org/2000/svg" p-id="2069" width="200" height="200"><path d="M518.537 778.457c-134.736 0-271.484-65.861-417.786-198.082-5.028-4.525-10.054-8.548-14.077-12.066-17.093-14.58-28.155-24.634-28.657-41.729-0.502-17.093 10.054-27.651 26.142-44.24 3.518-3.518 7.54-7.54 12.066-12.066 0 0 0 0 0 0 138.758-144.289 273.495-215.177 412.756-217.187 137.753-2.011 273.495 64.353 414.768 202.608 25.639 25.139 39.214 42.733 39.214 63.849 0 22.624-17.093 39.214-33.182 54.799-140.268 136.244-274.501 204.116-411.25 204.116zM112.817 524.567c2.011 2.011 4.525 4.022 6.537 6.032 4.022 3.518 9.050 8.043 14.58 12.567 135.744 122.167 258.916 182.999 376.559 185.012 124.178 2.513 249.869-59.826 384.1-189.538 4.525-4.525 15.584-15.084 18.098-19.607-1.508-3.018-6.537-10.559-24.132-28.155-131.216-128.202-254.894-190.039-379.073-188.029-125.185 2.011-248.358 67.871-377.061 201.602-4.525 5.028-9.050 9.050-12.567 12.567-2.011 3.018-4.525 5.531-7.041 7.54z" p-id="2070"></path><path d="M510.492 654.278c76.418 0 138.758-62.34 138.758-138.758s-62.34-138.758-138.758-138.758c-76.418 0-138.758 62.34-138.758 138.758 0 76.418 62.34 138.758 138.758 138.758z" p-id="2071"></path></svg>