<svg t="1607424022065" class="icon" viewBox="0 0 1024 1024" version="1.1" xmlns="http://www.w3.org/2000/svg" p-id="6614" width="200" height="200"><path d="M845.88544 116.43904 178.11456 116.43904c-34.21184 0-62.0544 27.82208-62.0544 62.04416L116.06016 845.5168c0 34.2016 27.84256 62.04416 62.0544 62.04416l667.77088 0c34.21184 0 62.0544-27.84256 62.0544-62.04416L907.93984 178.4832C907.93984 144.26112 880.09728 116.43904 845.88544 116.43904zM803.81952 187.06432c14.6944 0 26.59328 11.90912 26.59328 26.60352 0 14.68416-11.89888 26.59328-26.59328 26.59328s-26.59328-11.90912-26.59328-26.59328C777.22624 198.97344 789.12512 187.06432 803.81952 187.06432zM708.52608 187.06432c14.6944 0 26.59328 11.90912 26.59328 26.60352 0 14.68416-11.89888 26.59328-26.59328 26.59328s-26.59328-11.90912-26.59328-26.59328C681.9328 198.97344 693.83168 187.06432 708.52608 187.06432zM837.02784 836.64896 186.97216 836.64896 186.97216 306.26816l650.04544 0L837.0176 836.64896zM728.96512 622.97088l-0.01024-158.37184 79.18592 79.18592L728.96512 622.97088zM295.04512 622.97088l-79.18592-79.18592 79.17568-79.17568L295.04512 622.97088z" p-id="6615"></path></svg>